PathFileType	4	(X/Y/Z)	D:\TRACE\v60_Jaco2_6-2-23\JustArmDRS_Motion1_2-platform.trc
DataRate	CameraRate	NumFrames	NumMarkers	Units	OrigDataRate	OrigDataStartFrame	OrigNumFrames
100.00	100.00	      54	5	mm	100.00	852	      6808
Frame#	Time	Left_Front			Right_Front			Left_Aft			Right_Aft			Post			
		X1	Y1	Z1	X2	Y2	Z2	X3	Y3	Z3	X4	Y4	Z4	X5	Y5	Z5	

852	8.510	-801.28827	-17.53808	-644.40076	768.36029	-15.28608	-649.87512	-709.56195	24.89990	489.80560	732.89313	25.32627	499.72104	-15.83420	1269.76794	-1016.05731	
853	8.520	-800.06091	-17.77012	-644.31909	769.31390	-15.64907	-650.01782	-708.72534	25.20899	489.81570	733.60095	25.30850	499.62241	-14.07142	1269.26868	-1016.83270	
854	8.530	-799.05811	-17.72373	-644.88434	770.28870	-15.70153	-650.15216	-707.63623	25.31560	489.80566	734.82086	25.46607	499.59781	-13.69296	1269.05310	-1017.18024	
855	8.540	-798.31171	-17.97214	-644.82880	771.28662	-15.74479	-650.05878	-706.69611	25.42158	489.77713	735.33911	25.83089	499.61481	-12.77771	1268.73816	-1017.96069	
856	8.550	-797.18622	-18.58694	-644.73425	772.14880	-16.03884	-650.22351	-705.73395	25.63416	489.72186	736.61896	25.88818	499.40045	-11.50443	1268.50269	-1018.32092	
857	8.560	-796.03442	-18.80021	-644.64697	773.40076	-16.25438	-650.11639	-704.76288	25.74691	489.67175	737.53412	25.92293	499.35138	-10.50656	1268.38647	-1019.04089	
858	8.570	-795.21210	-18.88749	-644.21661	774.47369	-16.25619	-649.95398	-703.73340	25.85679	489.52255	738.33643	25.94094	499.21906	-9.96130	1268.17493	-1019.19189	
859	8.580	-794.31683	-18.79989	-644.97443	775.37756	-16.28216	-650.17969	-702.87482	25.96426	489.47989	739.57190	26.11216	499.15131	-8.44244	1267.86560	-1019.56818	
860	8.590	-793.12335	-18.88864	-645.00085	776.14722	-16.55952	-650.14227	-702.02411	26.17230	489.48901	740.25958	26.22708	499.14676	-7.56389	1267.66919	-1020.02606	
861	8.600	-792.64038	-18.50460	-644.79968	777.21277	-16.77863	-650.22009	-701.00952	26.22184	489.55450	741.30444	26.44409	499.21793	-6.98922	1267.45825	-1020.13684	
862	8.610	-791.89703	-18.66084	-644.79639	778.30737	-16.88980	-650.28571	-699.75995	26.24652	489.45541	742.60120	26.46097	499.01950	-5.78728	1267.17224	-1020.43646	
863	8.620	-790.39807	-19.78187	-645.06970	779.03430	-16.96445	-650.38141	-699.05444	26.26591	489.23499	743.39789	26.57004	499.07751	-4.75851	1267.11340	-1020.76874	
864	8.630	-789.82477	-18.77066	-644.90326	780.11462	-17.00530	-650.26520	-698.05383	26.39609	489.24100	744.34375	26.56887	499.04626	-4.16478	1266.99805	-1020.58374	
865	8.640	-788.94739	-18.91682	-645.02216	780.97821	-17.17188	-650.57874	-697.05182	26.41765	489.17624	745.06415	26.74817	499.10614	-2.85032	1266.59790	-1020.65997	
866	8.650	-788.05585	-19.05171	-644.89044	781.94586	-17.31356	-650.54993	-696.17395	26.44261	489.16165	746.35254	26.90666	498.96503	-2.05768	1266.49963	-1021.12854	
867	8.660	-787.03436	-19.26774	-645.01862	783.01532	-17.45589	-650.46570	-695.15106	26.49637	489.27069	747.34741	26.98209	499.01978	-1.27396	1266.33057	-1021.27881	
868	8.670	-786.06873	-19.40698	-644.88507	783.83813	-17.52608	-650.55310	-693.96320	26.60069	489.27197	748.16943	26.91485	498.87827	-0.03148	1265.99670	-1021.19244	
869	8.680	-785.07031	-19.22602	-645.07031	784.92773	-17.57279	-650.50549	-693.33679	26.66120	489.04874	749.07391	26.87511	498.77002	0.98138	1266.01099	-1021.54810	
870	8.690	-784.25842	-19.31195	-645.01129	785.64655	-17.54552	-650.59619	-692.25659	26.74107	489.00299	749.94946	27.07145	498.90076	1.75638	1265.96997	-1021.85596	
871	8.700	-783.15906	-19.49608	-645.02502	786.82550	-17.55499	-650.58325	-691.23999	26.72973	488.98657	750.85602	27.07898	498.78363	2.47738	1265.67834	-1022.02332	
872	8.710	-782.34192	-19.53700	-644.97241	787.89716	-17.71101	-650.50171	-690.60168	26.85641	489.02045	752.04291	27.17807	498.66556	3.76475	1265.72815	-1022.45947	
873	8.720	-781.38373	-19.56192	-645.05493	788.62128	-17.75894	-650.63361	-689.43494	26.99123	489.09219	752.91675	27.13901	498.68829	4.63355	1265.75085	-1022.66858	
874	8.730	-780.56372	-19.38710	-645.15991	789.43231	-17.74641	-650.68329	-688.56342	26.92081	489.06885	753.47864	27.31577	498.82434	5.42105	1265.47058	-1022.63190	
875	8.740	-779.42334	-19.66273	-645.17865	790.50507	-17.66250	-650.89868	-687.82019	26.88367	489.01300	754.68030	27.22209	498.68970	6.55752	1265.41260	-1022.69672	
876	8.750	-778.58795	-19.65884	-645.09833	791.35498	-17.82400	-650.82208	-686.77130	26.79651	488.86649	755.66974	27.18657	498.67337	7.54585	1265.47974	-1022.84357	
877	8.760	-777.61676	-19.59496	-645.17096	792.11572	-17.96189	-650.77252	-685.57928	26.80959	488.85846	756.65784	27.16585	498.70139	8.22810	1265.53235	-1022.82233	
878	8.770	-776.90210	-19.50879	-645.21094	793.37012	-17.88569	-650.72449	-684.96234	26.70877	488.92435	757.38544	27.32415	498.77228	9.04759	1265.41858	-1022.72009	
879	8.780	-775.77332	-19.57233	-645.23071	794.28162	-17.77859	-650.71539	-683.83026	26.75522	489.00409	758.28619	27.26730	498.77206	10.29117	1265.57104	-1022.29669	
880	8.790	-774.96814	-19.76840	-645.04236	794.82031	-17.66813	-650.64270	-683.00348	26.78020	489.07828	759.42371	27.24070	498.62845	10.90651	1265.77075	-1022.13763	
881	8.800	-774.23944	-19.61226	-645.14771	795.83563	-17.59280	-650.65686	-682.24835	26.83846	489.09180	760.17847	27.14646	498.68915	11.44389	1265.68921	-1022.02802	
882	8.810	-773.20679	-19.49267	-645.30792	796.61237	-17.61258	-650.87000	-681.38477	26.80831	488.94287	760.71570	27.13875	498.85983	12.76673	1265.66077	-1021.87732	
883	8.820	-772.33417	-19.44610	-645.27228	797.67847	-17.66807	-650.78168	-680.48169	26.81546	488.95505	761.78998	27.13025	498.77368	13.66651	1265.73193	-1021.93463	
884	8.830	-771.39166	-19.63508	-645.12860	798.34705	-17.69134	-650.79822	-679.70038	26.88393	488.87561	762.81201	27.14590	498.63733	14.43123	1265.86462	-1021.90814	
885	8.840	-770.73242	-19.53305	-645.01337	799.27551	-17.83125	-650.82715	-678.81305	26.80001	488.83649	763.37091	27.03267	498.72198	15.22185	1265.96375	-1021.80054	
886	8.850	-769.91101	-19.25769	-645.19641	800.22882	-17.52924	-650.68640	-677.86090	26.58993	488.92404	764.57178	27.02912	498.74316	15.96016	1265.89185	-1021.72253	
887	8.860	-768.86035	-19.27242	-645.30121	801.03204	-17.37643	-650.54700	-677.07526	26.49236	488.98508	765.18341	27.03605	498.75510	17.09731	1265.98633	-1021.79681	
888	8.870	-768.19385	-19.16999	-645.18585	801.80682	-17.23045	-650.62036	-676.29749	26.36029	489.02414	766.02509	27.01912	498.71851	17.93578	1266.19055	-1021.85706	
889	8.880	-767.28906	-19.27596	-645.04767	802.70184	-17.13878	-650.66199	-675.29926	26.37526	489.13132	767.00195	27.01483	498.87076	18.44882	1266.24255	-1021.86615	
890	8.890	-766.77734	-19.19485	-644.97345	803.37567	-17.12722	-650.69788	-674.75610	26.28437	489.14172	767.86859	26.75546	498.68439	19.36495	1266.46545	-1021.86127	
891	8.900	-765.71973	-19.08316	-645.21027	804.19818	-17.24607	-650.74408	-673.87457	26.29956	489.13904	768.18829	26.76385	498.95572	20.51896	1266.58606	-1021.38330	
892	8.910	-764.88928	-18.94786	-645.21191	804.94891	-17.06584	-650.70947	-673.02930	26.30623	489.06796	769.36896	26.77206	498.88873	21.05443	1266.64124	-1021.01355	
893	8.920	-764.22052	-18.85921	-645.10468	805.78589	-16.97039	-650.60297	-672.22565	26.25632	489.03134	770.09918	26.67870	498.92181	21.51780	1266.79297	-1020.72638	
894	8.930	-763.65771	-18.92409	-644.94647	806.64795	-16.87509	-650.44061	-671.70123	26.24510	489.05527	770.83557	26.59426	498.94705	22.01871	1266.89856	-1020.53839	
895	8.940	-762.70343	-18.82906	-644.85486	807.14276	-16.68822	-650.50220	-670.97858	26.18163	488.99054	771.28693	26.55618	498.97708	22.86762	1267.09399	-1020.14496	
896	8.950	-762.07074	-18.64012	-645.06995	807.93018	-16.48182	-650.60516	-670.10162	25.95353	489.08829	772.12097	26.50537	498.92651	24.07982	1267.27710	-1019.60919	
897	8.960	-761.21875	-18.43373	-645.07666	808.43176	-16.48922	-650.69354	-669.39435	25.78549	489.18088	772.99072	26.33821	498.79922	24.64590	1267.58362	-1019.46198	
898	8.970	-760.79077	-18.33394	-645.03125	809.22870	-16.30900	-650.70105	-668.86890	25.73667	489.27832	773.60297	26.24241	498.89645	25.26225	1267.91260	-1019.12238	
899	8.980	-759.98975	-17.97006	-644.78552	810.06903	-16.11880	-650.52997	-667.96790	25.60483	489.37912	774.08826	26.16844	498.99326	25.58990	1268.00195	-1018.92249	
900	8.990	-759.31891	-17.74837	-644.69843	810.59430	-15.87433	-650.47772	-667.44537	25.44975	489.39664	774.80994	26.03562	499.09042	26.60056	1268.31287	-1018.59924	
901	9.000	-758.70599	-17.61440	-644.82867	811.13831	-15.54089	-650.31830	-666.84271	25.44576	489.38632	775.59760	25.85172	499.11856	27.14417	1268.78931	-1018.35358	
902	9.010	-757.87982	-17.39449	-645.08160	811.87000	-15.42812	-650.49658	-666.28552	25.37572	489.40912	776.15106	25.75727	499.25998	27.80068	1269.19287	-1017.91180	
903	9.020	-757.20056	-16.90977	-645.10254	812.56384	-15.30323	-650.45386	-665.66583	25.25225	489.44577	776.88867	25.62645	499.27884	28.22429	1269.48743	-1017.46771	
904	9.030	-756.95972	-16.95611	-645.01483	813.10919	-15.14420	-650.35596	-665.15887	25.07460	489.52591	777.39911	25.45174	499.34766	28.53769	1269.64661	-1017.09760	
905	9.040	-756.42725	-16.72954	-644.88470	813.72778	-14.93735	-650.38562	-664.40924	24.79687	489.54489	777.79346	25.26278	499.40604	29.27172	1269.89148	-1016.42297	
